{
  "source": "C:\\Users\\Peter\\Desktop\\stuff\\MIUN\\quantitative_research\\video_compression\\videos\\UVG\\YachtRide_1920x1080_120fps_420_8bit_YUV.y4m",
  "output": "C:\\Users\\Peter\\Desktop\\stuff\\MIUN\\quantitative_research\\video_compression\\compressed_videos\\UVG\\h264\\4\\YachtRide_1920x1080_120fps_420_8bit_YUV_h264.mp4",
  "codec": "h264",
  "ok": "[yuv4mpegpipe @ 000002b57e896600] Stream #0: not enough frames to estimate rate; consider increasing probesize\nInput #0, yuv4mpegpipe, from 'C:\\Users\\Peter\\Desktop\\stuff\\MIUN\\quantitative_research\\video_compression\\videos\\UVG\\YachtRide_1920x1080_120fps_420_8bit_YUV.y4m':\n  Duration: 00:00:05.00, start: 0.000000, bitrate: 2985989 kb/s\n  Stream #0:0: Video: rawvideo (I420 / 0x30323449), yuv420p(progressive), 1920x1080, 120 fps, 120 tbr, 120 tbn\n[out#0/mp4 @ 000002b57e89a240] Codec AVOption b:a (set bitrate (in bits/s)) has not been used for any stream. The most likely reason is either wrong type (e.g. a video option with no video streams) or that it is a private option of some decoder which was not actually used for any stream.\nStream mapping:\n  Stream #0:0 -> #0:0 (rawvideo (native) -> h264 (libx264))\nPress [q] to stop, [?] for help\n[libx264 @ 000002b57e89ca80] using cpu capabilities: MMX2 SSE2Fast SSSE3 SSE4.2 AVX FMA3 BMI2 AVX2\n[libx264 @ 000002b57e89ca80] profile High, level 5.1, 4:2:0, 8-bit\n[libx264 @ 000002b57e89ca80] 264 - core 165 r3222 b35605a - H.264/MPEG-4 AVC codec - Copyleft 2003-2025 - http://www.videolan.org/x264.html - options: cabac=1 ref=5 deblock=1:0:0 analyse=0x3:0x113 me=hex subme=8 psy=1 psy_rd=1.00:0.00 mixed_ref=1 me_range=16 chroma_me=1 trellis=2 8x8dct=1 cqm=0 deadzone=21,11 fast_pskip=1 chroma_qp_offset=-2 threads=18 lookahead_threads=3 sliced_threads=0 nr=0 decimate=1 interlaced=0 bluray_compat=0 constrained_intra=0 bframes=3 b_pyramid=2 b_adapt=1 b_bias=0 direct=3 weightb=1 open_gop=0 weightp=2 keyint=250 keyint_min=25 scenecut=40 intra_refresh=0 rc_lookahead=50 rc=cbr mbtree=1 bitrate=4000 ratetol=1.0 qcomp=0.60 qpmin=0 qpmax=69 qpstep=4 vbv_maxrate=4000 vbv_bufsize=4000 nal_hrd=none filler=0 ip_ratio=1.40 aq=1:1.00\nOutput #0, mp4, to 'C:\\Users\\Peter\\Desktop\\stuff\\MIUN\\quantitative_research\\video_compression\\compressed_videos\\UVG\\h264\\4\\YachtRide_1920x1080_120fps_420_8bit_YUV_h264.mp4':\n  Metadata:\n    encoder         : Lavf62.3.100\n  Stream #0:0: Video: h264 (avc1 / 0x31637661), yuv420p(tv, progressive), 1920x1080, q=2-31, 4000 kb/s, 120 fps, 15360 tbn\n    Metadata:\n      encoder         : Lavc62.11.100 libx264\n    Side data:\n      cpb: bitrate max/min/avg: 4000000/0/4000000 buffer size: 4000000 vbv_delay: N/A\nframe=    0 fps=0.0 q=0.0 size=       0KiB time=N/A bitrate=N/A speed=N/A elapsed=0:00:00.52    \nframe=    0 fps=0.0 q=0.0 size=       0KiB time=N/A bitrate=N/A speed=N/A elapsed=0:00:01.05    \nframe=   12 fps=7.6 q=45.0 size=       0KiB time=00:00:00.08 bitrate=   4.6kbits/s speed=0.0525x elapsed=0:00:01.58    \nframe=   40 fps= 18 q=42.0 size=       0KiB time=00:00:00.31 bitrate=   1.2kbits/s speed=0.146x elapsed=0:00:02.16    \nframe=   68 fps= 25 q=43.0 size=     256KiB time=00:00:00.55 bitrate=3813.7kbits/s speed=0.201x elapsed=0:00:02.73    \nframe=   96 fps= 29 q=43.0 size=     256KiB time=00:00:00.75 bitrate=2796.7kbits/s speed=0.228x elapsed=0:00:03.28    \nframe=  124 fps= 32 q=43.0 size=     256KiB time=00:00:00.98 bitrate=2133.1kbits/s speed=0.255x elapsed=0:00:03.85    \nframe=  153 fps= 34 q=43.0 size=     512KiB time=00:00:01.25 bitrate=3355.8kbits/s speed=0.28x elapsed=0:00:04.46    \nframe=  186 fps= 37 q=43.0 size=     512KiB time=00:00:01.51 bitrate=2765.7kbits/s speed= 0.3x elapsed=0:00:05.06    \nframe=  216 fps= 38 q=44.0 size=     768KiB time=00:00:01.75 bitrate=3595.3kbits/s speed=0.31x elapsed=0:00:05.63    \nframe=  233 fps= 37 q=44.0 size=     768KiB time=00:00:01.92 bitrate=3268.5kbits/s speed=0.307x elapsed=0:00:06.26    \nframe=  254 fps= 37 q=44.0 size=    1024KiB time=00:00:02.10 bitrate=3994.8kbits/s speed=0.307x elapsed=0:00:06.83    \nframe=  278 fps= 38 q=44.0 size=    1024KiB time=00:00:02.30 bitrate=3647.4kbits/s speed=0.313x elapsed=0:00:07.35    \nframe=  306 fps= 39 q=44.0 size=    1280KiB time=00:00:02.53 bitrate=4139.3kbits/s speed=0.322x elapsed=0:00:07.86    \nframe=  335 fps= 40 q=44.0 size=    1280KiB time=00:00:02.76 bitrate=3790.2kbits/s speed=0.328x elapsed=0:00:08.42    \nframe=  362 fps= 40 q=44.0 size=    1280KiB time=00:00:03.00 bitrate=3495.4kbits/s speed=0.335x elapsed=0:00:08.94    \nframe=  390 fps= 41 q=44.0 size=    1536KiB time=00:00:03.23 bitrate=3891.7kbits/s speed=0.341x elapsed=0:00:09.48    \nframe=  414 fps= 41 q=44.0 size=    1536KiB time=00:00:03.43 bitrate=3665.0kbits/s speed=0.343x elapsed=0:00:10.01    \nframe=  438 fps= 42 q=44.0 size=    1792KiB time=00:00:03.63 bitrate=4040.5kbits/s speed=0.345x elapsed=0:00:10.54    \nframe=  466 fps= 42 q=44.0 size=    1792KiB time=00:00:03.83 bitrate=3829.7kbits/s speed=0.345x elapsed=0:00:11.10    \nframe=  483 fps= 41 q=44.0 size=    1792KiB time=00:00:04.00 bitrate=3662.5kbits/s speed=0.343x elapsed=0:00:11.67    \nframe=  500 fps= 41 q=44.0 size=    2048KiB time=00:00:04.15 bitrate=4042.8kbits/s speed=0.34x elapsed=0:00:12.21    \nframe=  532 fps= 42 q=44.0 size=    2048KiB time=00:00:04.38 bitrate=3827.6kbits/s speed=0.343x elapsed=0:00:12.76    \nframe=  569 fps= 43 q=44.0 size=    2304KiB time=00:00:04.72 bitrate=3994.7kbits/s speed=0.354x elapsed=0:00:13.34    \n[mp4 @ 000002b57e89a340] Starting second pass: moving the moov atom to the beginning of the file\n[out#0/mp4 @ 000002b57e89a240] video:2511KiB audio:0KiB subtitle:0KiB other streams:0KiB global headers:0KiB muxing overhead: 0.314101%\nframe=  600 fps= 43 q=-1.0 Lsize=    2518KiB time=00:00:04.98 bitrate=4140.0kbits/s speed=0.358x elapsed=0:00:13.93    \n[libx264 @ 000002b57e89ca80] frame I:3     Avg QP:38.20  size: 25641\n[libx264 @ 000002b57e89ca80] frame P:151   Avg QP:41.23  size:  8539\n[libx264 @ 000002b57e89ca80] frame B:446   Avg QP:44.11  size:  2699\n[libx264 @ 000002b57e89ca80] consecutive B-frames:  0.8%  0.0%  0.5% 98.7%\n[libx264 @ 000002b57e89ca80] mb I  I16..4: 40.5% 56.0%  3.5%\n[libx264 @ 000002b57e89ca80] mb P  I16..4:  1.4%  1.4%  0.0%  P16..4: 30.7%  3.0%  2.7%  0.0%  0.0%    skip:60.7%\n[libx264 @ 000002b57e89ca80] mb B  I16..4:  0.0%  0.0%  0.0%  B16..8: 31.2%  0.5%  0.0%  direct: 0.1%  skip:68.2%  L0:34.6% L1:65.2% BI: 0.2%\n[libx264 @ 000002b57e89ca80] 8x8 transform intra:52.9% inter:92.3%\n[libx264 @ 000002b57e89ca80] direct mvs  spatial:97.8% temporal:2.2%\n[libx264 @ 000002b57e89ca80] coded y,uvDC,uvAC intra: 23.2% 18.6% 2.1% inter: 2.0% 1.1% 0.0%\n[libx264 @ 000002b57e89ca80] i16 v,h,dc,p: 16% 61%  5% 18%\n[libx264 @ 000002b57e89ca80] i8 v,h,dc,ddl,ddr,vr,hd,vl,hu:  5% 15% 18%  5% 11%  6% 17%  5% 18%\n[libx264 @ 000002b57e89ca80] i4 v,h,dc,ddl,ddr,vr,hd,vl,hu:  3% 19% 11%  5% 12%  8% 15%  6% 21%\n[libx264 @ 000002b57e89ca80] i8c dc,h,v,p: 49% 45%  5%  1%\n[libx264 @ 000002b57e89ca80] Weighted P-Frames: Y:0.0% UV:0.0%\n[libx264 @ 000002b57e89ca80] ref P L0: 54.5%  6.6% 24.0%  6.7%  8.1%\n[libx264 @ 000002b57e89ca80] ref B L0: 85.0% 11.2%  2.8%  0.9%\n[libx264 @ 000002b57e89ca80] ref B L1: 95.5%  4.5%\n[libx264 @ 000002b57e89ca80] kb/s:4112.10\n",
  "seconds": 14.134116172790527,
  "probe_out": {}
}